{"title":"(1977) Uno/Dos - Los que iban cantando [FLAC]","uid":10398550,"size":385473500,"categoryP":"audio","categoryS":"flac","magnet":"?xt=urn:btih:9879f877e6d802833aaf562a0b2d532d1b996563&amp;dn=%281977%29+Uno%2FDos+-+Los+que+iban+cantando+%5BFLAC%5D&amp;tr=udp%3A%2F%2Ftracker.openbittorrent.com%3A80&amp;tr=udp%3A%2F%2Fopen.demonii.com%3A1337&amp;tr=udp%3A%2F%2Ftracker.coppersurfer.tk%3A6969&amp;tr=udp%3A%2F%2Fexodus.desync.com%3A6969","seeders":1,"leechers":0,"uploader":"Obdulio","files":5,"time":1403312101,"description":"CUERipper v2.1.4 Copyright (C) 2008-12 Grigory Chudov\n\nEAC extraction logfile from 20. June 2014, 19:40\n\nLos que iban cantando / Uno/Dos\n\nUsed drive  : HL-DT-ST DVD+-RW GT10N   Adapter: 1  ID: 0\n\nRead mode               : Secure\nUtilize accurate stream : Yes\nDefeat audio cache      : Yes\nMake use of C2 pointers : No\n\nRead offset correction                      : 102\nOverread into Lead-In and Lead-Out          : No\nFill up missing offset samples with silence : Yes\nDelete leading and trailing silent blocks   : No\nNull samples used in CRC calculations       : Yes\nUsed interface                              : Native Win32 interface for Win NT &amp; 2000\n\nUsed output format : Internal WAV Routines\nSample format      : 44.100 Hz; 16 Bit; Stereo\n\n\nTOC of the extracted CD\n\n     Track |   Start  |  Length  | Start sector | End sector \n    ---------------------------------------------------------\n        1  |  0:00.00 |  3:13.74 |         0    |    14548   \n        2  |  3:13.74 |  2:44.17 |     14549    |    26865   \n        3  |  5:58.16 |  1:48.19 |     26866    |    34984   \n        4  |  7:46.35 |  2:58.05 |     34985    |    48339   \n        5  | 10:44.40 |  2:17.58 |     48340    |    58672   \n        6  | 13:02.23 |  1:45.37 |     58673    |    66584   \n        7  | 14:47.60 |  3:21.11 |     66585    |    81670   \n        8  | 18:08.71 |  3:33.32 |     81671    |    97677   \n        9  | 21:42.28 |  2:21.12 |     97678    |   108264   \n       10  | 24:03.40 |  2:54.74 |    108265    |   121388   \n       11  | 26:58.39 |  2:58.28 |    121389    |   134766   \n       12  | 29:56.67 |  3:07.66 |    134767    |   148857   \n       13  | 33:04.58 |  1:59.21 |    148858    |   157803   \n       14  | 35:04.04 |  2:44.45 |    157804    |   170148   \n       15  | 37:48.49 |  2:42.03 |    170149    |   182301   \n       16  | 40:30.52 |  3:13.71 |    182302    |   196847   \n       17  | 43:44.48 |  1:44.10 |    196848    |   204657   \n       18  | 45:28.58 |  1:22.18 |    204658    |   210825   \n       19  | 46:51.01 |  2:44.22 |    210826    |   223147   \n       20  | 49:35.23 |  5:35.45 |    223148    |   248317   \n       21  | 55:10.68 |  0:53.26 |    248318    |   252318   \n       22  | 56:04.19 |  2:01.41 |    252319    |   261434   \n       23  | 58:05.60 |  3:23.60 |    261435    |   276719   \n       24  | 61:29.45 |  2:11.48 |    276720    |   286592   \n       25  | 63:41.18 |  2:32.06 |    286593    |   297998   \n       26  | 66:13.24 |  1:51.69 |    297999    |   306392   \n       27  | 68:05.18 |  2:52.22 |    306393    |   319314   \n       28  | 70:57.40 |  3:36.17 |    319315    |   335531   \n       29  | 74:33.57 |  3:14.18 |    335532    |   350099   \n\n\nRange status and errors\n\nSelected range\n\n     Filename C:UsersFacuMusicLos que iban cantando1977 - Uno_DosLos que iban cantando - Uno_Dos.wav\n\n     Peak level 94.0 %\n     Range quality 100.0 %\n     Copy CRC 7981F159\n     Copy OK\n\nNo errors occurred\n\n\nAccurateRip summary\n\nTrack  1  not present in database\nTrack  2  not present in database\nTrack  3  not present in database\nTrack  4  not present in database\nTrack  5  not present in database\nTrack  6  not present in database\nTrack  7  not present in database\nTrack  8  not present in database\nTrack  9  not present in database\nTrack 10  not present in database\nTrack 11  not present in database\nTrack 12  not present in database\nTrack 13  not present in database\nTrack 14  not present in database\nTrack 15  not present in database\nTrack 16  not present in database\nTrack 17  not present in database\nTrack 18  not present in database\nTrack 19  not present in database\nTrack 20  not present in database\nTrack 21  not present in database\nTrack 22  not present in database\nTrack 23  not present in database\nTrack 24  not present in database\nTrack 25  not present in database\nTrack 26  not present in database\nTrack 27  not present in database\nTrack 28  not present in database\nTrack 29  not present in database\n\nNone of the tracks are present in the AccurateRip database\n\nEnd of status report\n","torrent":{"xt":"urn:btih:9879f877e6d802833aaf562a0b2d532d1b996563","amp;dn":"%281977%29+Uno%2FDos+-+Los+que+iban+cantando+%5BFLAC%5D","amp;tr":["udp%3A%2F%2Ftracker.openbittorrent.com%3A80","udp%3A%2F%2Fopen.demonii.com%3A1337","udp%3A%2F%2Ftracker.coppersurfer.tk%3A6969","udp%3A%2F%2Fexodus.desync.com%3A6969"],"infoHash":"9879f877e6d802833aaf562a0b2d532d1b996563","infoHashBuffer":{"type":"Buffer","data":[152,121,248,119,230,216,2,131,58,175,86,42,11,45,83,45,27,153,101,99]},"announce":[],"urlList":[]}}